<svg xmlns="http://www.w3.org/2000/svg" width="199" height="41" viewBox="0 0 199 41">
    <g fill="none">
        <path fill="#23C88C" d="M23.739 25.79L24.567 24.958 25.395 25.79 26.241 24.94 25.413 24.108 26.241 23.276 25.395 22.426 24.567 23.258 23.739 22.426 22.893 23.276 23.721 24.108 22.893 24.94zM16.605 25.845L17.433 25.013 18.261 25.845 19.107 24.994 18.279 24.162 19.107 23.33 18.261 22.48 17.433 23.312 16.605 22.48 15.759 23.33 16.587 24.162 15.759 24.994z"/>
        <path fill="#23C88C" d="M38.517 16.445V.177h-3.81L30.08 8.414H11.919L7.293.177h-3.81v16.268H.063v10.117l3.42 1.206v6.283l17.52 6.77 17.514-6.77v-6.283l3.426-1.206V16.445h-3.426zM3.483 26.49l-2.22-.784v-8.055h2.22v8.839zm18.12-16.87h3.384l-1.818 6.945h-1.566V9.62zm-1.2 0v6.945h-1.536L17.043 9.62h3.36zm-4.602 0l1.824 6.945H15.56L12.495 9.62H15.8zm13.584 18.486l-8.382 5.155-8.388-5.155V19.9h16.77v8.206zm-2.946-11.54h-2.034l1.824-6.947h3.276l-3.066 6.946zm14.304 9.14l-2.226.784v-8.84h2.226v8.056z"/>
        <g>
            <path fill="#23C88C" d="M3.966 12.558v8.212H0V.31h6.131c2.035 0 3.635.53 4.803 1.588 1.167 1.06 1.75 2.536 1.75 4.43 0 1.06-.246 1.978-.738 2.756-.492.779-1.202 1.397-2.13 1.857 1.068.356 1.837.946 2.306 1.771.469.826.703 1.857.703 3.094v1.49c0 .573.066 1.173.197 1.8.131.629.365 1.088.703 1.379v.295H9.619c-.328-.3-.537-.79-.626-1.47-.09-.679-.134-1.356-.134-2.031v-1.435c0-1.04-.215-1.846-.646-2.418-.432-.572-1.05-.858-1.857-.858h-2.39zm0-3.094h2.137c.853 0 1.502-.255 1.948-.766.445-.511.668-1.235.668-2.173 0-.956-.22-1.716-.661-2.278-.44-.563-1.083-.844-1.927-.844H3.966v6.061zm26.451 3.938c0 2.409-.68 4.289-2.039 5.639-1.36 1.35-3.169 2.025-5.428 2.025-2.26 0-4.064-.675-5.414-2.025-1.35-1.35-2.025-3.23-2.025-5.64V7.693c0-2.4.673-4.282 2.018-5.646C18.874.682 20.677 0 22.936 0c2.26 0 4.071.682 5.435 2.046 1.364 1.364 2.046 3.246 2.046 5.646v5.71zM26.466 7.65c0-1.49-.303-2.616-.907-3.375-.605-.76-1.48-1.14-2.623-1.14-1.153 0-2.02.378-2.602 1.133-.58.755-.872 1.882-.872 3.382v5.752c0 1.518.293 2.657.88 3.417.585.76 1.455 1.139 2.608 1.139s2.027-.38 2.623-1.14c.595-.759.893-1.898.893-3.416V7.65zm6.721 13.12V.295h5.865c2.137 0 3.801.467 4.992 1.4 1.19.932 1.786 2.327 1.786 4.183 0 .966-.218 1.826-.654 2.58-.436.755-1.08 1.315-1.934 1.681 1.144.234 1.995.783 2.553 1.645.557.863.836 1.87.836 3.024 0 1.96-.57 3.443-1.708 4.45-1.14 1.008-2.764 1.512-4.873 1.512h-6.862zm3.966-9.07v5.977h2.897c.863 0 1.514-.242 1.955-.725.44-.482.66-1.197.66-2.144 0-.975-.2-1.73-.604-2.264-.403-.535-1.031-.816-1.884-.844h-3.024zm0-2.742h2.081c.854-.019 1.505-.258 1.955-.717.45-.46.675-1.125.675-1.997 0-.975-.234-1.692-.703-2.152-.469-.46-1.172-.689-2.11-.689h-1.898v5.555zm26.62 4.444c0 2.409-.68 4.289-2.039 5.639-1.359 1.35-3.168 2.025-5.428 2.025s-4.064-.675-5.414-2.025c-1.35-1.35-2.025-3.23-2.025-5.64V7.693c0-2.4.673-4.282 2.018-5.646C52.23.682 54.033 0 56.292 0c2.26 0 4.071.682 5.435 2.046 1.364 1.364 2.046 3.246 2.046 5.646v5.71zM59.822 7.65c0-1.49-.302-2.616-.907-3.375-.605-.76-1.48-1.14-2.623-1.14-1.153 0-2.02.378-2.601 1.133-.582.755-.872 1.882-.872 3.382v5.752c0 1.518.293 2.657.879 3.417.586.76 1.455 1.139 2.608 1.139s2.028-.38 2.623-1.14c.595-.759.893-1.898.893-3.416V7.65z" transform="translate(56.575 12.23)"/>
            <path fill="#FFF" d="M75.572 15.455c0-.816-.209-1.46-.626-1.934-.417-.473-1.165-.935-2.243-1.385-2.1-.74-3.68-1.58-4.739-2.517-1.06-.938-1.589-2.25-1.589-3.938 0-1.678.605-3.044 1.814-4.099C69.4.527 70.941 0 72.816 0c1.987 0 3.586.562 4.795 1.688 1.21 1.125 1.795 2.634 1.758 4.528l-.028.084h-3.853c0-1.06-.237-1.863-.71-2.412-.474-.548-1.151-.822-2.033-.822-.76 0-1.35.25-1.772.752-.421.502-.632 1.127-.632 1.877 0 .694.239 1.266.717 1.716.478.45 1.298.942 2.46 1.476 1.979.657 3.477 1.486 4.494 2.49 1.017 1.003 1.525 2.353 1.525 4.05 0 1.753-.595 3.13-1.785 4.134-1.191 1.003-2.77 1.505-4.74 1.505-1.94 0-3.6-.542-4.978-1.625-1.378-1.082-2.043-2.73-1.997-4.943l.029-.084h3.867c0 1.284.26 2.208.78 2.77.52.563 1.287.844 2.3.844.853 0 1.492-.234 1.919-.703.427-.469.64-1.092.64-1.87zm15.623.886h-5.118l-1.154 4.43H80.79L86.597.294h4.106l5.808 20.475h-4.148l-1.168-4.43zm-4.303-3.122h3.488l-1.702-6.497h-.084l-1.702 6.497zm17.48 2.32l.169.858h.084l.169-.816L108.338.295h4.176L106.65 20.77h-4.12L96.694.295h4.176l3.502 15.244zm20.053-3.81h-6.258v5.948h7.495v3.093h-11.46V.295h11.432v3.108h-7.467v5.231h6.258v3.094zm7.72.829v8.212h-3.965V.31h6.13c2.035 0 3.636.53 4.803 1.588 1.167 1.06 1.751 2.536 1.751 4.43 0 1.06-.246 1.978-.738 2.756-.492.779-1.203 1.397-2.13 1.857 1.068.356 1.837.946 2.306 1.771.468.826.703 1.857.703 3.094v1.49c0 .573.065 1.173.197 1.8.13.629.365 1.088.703 1.379v.295h-4.107c-.328-.3-.536-.79-.625-1.47-.09-.679-.134-1.356-.134-2.031v-1.435c0-1.04-.216-1.846-.647-2.418-.431-.572-1.05-.858-1.856-.858h-2.39zm0-3.094h2.138c.853 0 1.502-.255 1.947-.766.446-.511.668-1.235.668-2.173 0-.956-.22-1.716-.66-2.278-.441-.563-1.083-.844-1.927-.844h-2.166v6.061z" transform="translate(56.575 12.23)"/>
        </g>
    </g>
</svg>
